<svg data-v-423bf9ae="" xmlns="http://www.w3.org/2000/svg" viewBox="0 0 508 90" class="iconLeft"><!----><!----><!----><g data-v-423bf9ae="" id="d22ea436-b532-46b8-b385-54f4e4366df0" fill="#000000" transform="matrix(4.49101807948119,0,0,4.49101807948119,110.47681289837092,-2.7844312892271006)"><path d="M1.19 4.58L1.19 10.35C1.19 13.20 2.09 14.52 4.73 14.52C7.38 14.52 8.36 13.20 8.36 10.35L8.36 4.58L7 4.58L7 10.61C7 12.39 6.43 13.30 4.77 13.30C3.12 13.30 2.55 12.39 2.55 10.61L2.55 4.58ZM10.70 17.15L12.00 17.15L12.00 13.16L12.05 13.16C12.39 14.06 13.15 14.52 14.14 14.52C15.96 14.52 17.05 13.08 17.05 10.72C17.05 8.37 15.96 6.93 14.14 6.93C13.15 6.93 12.39 7.39 12.05 8.29L12.00 8.29L12.00 7.10L10.70 7.10ZM13.76 13.38C12.78 13.38 12.00 12.82 12.00 12.05L12.00 9.39C12.00 8.62 12.78 8.06 13.76 8.06C14.92 8.06 15.67 8.89 15.67 10.11L15.67 11.34C15.67 12.56 14.92 13.38 13.76 13.38ZM21.11 14.52C22.82 14.52 23.88 13.64 23.88 12.22C23.88 11.10 23.23 10.40 21.63 10.16L21.01 10.07C20.17 9.94 19.75 9.67 19.75 9.03C19.75 8.41 20.20 8.01 21.08 8.01C21.95 8.01 22.57 8.41 22.92 8.88L23.74 8.09C23.13 7.36 22.36 6.93 21.13 6.93C19.60 6.93 18.49 7.69 18.49 9.11C18.49 10.46 19.46 11.03 20.85 11.23L21.46 11.33C22.34 11.45 22.62 11.83 22.62 12.36C22.62 13.03 22.12 13.44 21.20 13.44C20.31 13.44 19.64 13.05 19.10 12.36L18.21 13.12C18.89 13.97 19.77 14.52 21.11 14.52ZM25.75 14.35L27.05 14.35L27.05 11.84L28.08 10.74L30.35 14.35L31.92 14.35L29.01 9.90L31.58 7.10L30.04 7.10L28.15 9.17L27.12 10.44L27.05 10.44L27.05 3.99L25.75 3.99ZM33.92 5.59C34.47 5.59 34.71 5.29 34.71 4.87L34.71 4.68C34.71 4.26 34.47 3.96 33.92 3.96C33.38 3.96 33.14 4.26 33.14 4.68L33.14 4.87C33.14 5.29 33.38 5.59 33.92 5.59ZM33.26 14.35L34.57 14.35L34.57 7.10L33.26 7.10ZM39.20 14.35L39.20 13.24L38.16 13.24L38.16 3.99L36.86 3.99L36.86 13.02C36.86 13.82 37.32 14.35 38.22 14.35ZM43.01 14.35L43.01 13.24L41.97 13.24L41.97 3.99L40.67 3.99L40.67 13.02C40.67 13.82 41.13 14.35 42.03 14.35ZM50.76 14.35L50.76 13.15L46.03 13.15L46.03 10.01L50.41 10.01L50.41 8.81L46.03 8.81L46.03 5.78L50.76 5.78L50.76 4.58L44.67 4.58L44.67 14.35ZM54.10 14.35L54.10 9.38C54.10 8.50 54.92 8.06 55.78 8.06C56.80 8.06 57.30 8.69 57.30 9.91L57.30 14.35L58.60 14.35L58.60 9.72C58.60 7.95 57.69 6.93 56.21 6.93C55.12 6.93 54.50 7.49 54.17 8.29L54.10 8.29L54.10 7.10L52.79 7.10L52.79 14.35ZM67.05 15.09C67.05 13.87 66.28 13.13 64.48 13.13L62.83 13.13C62.17 13.13 61.77 13.01 61.77 12.59C61.77 12.18 62.17 11.94 62.59 11.82C62.83 11.87 63.13 11.90 63.41 11.90C65.16 11.90 66.22 10.89 66.22 9.42C66.22 8.62 65.90 7.95 65.31 7.52L65.31 7.13L66.74 7.13L66.74 6.03L65.63 6.03C65.02 6.03 64.75 6.43 64.75 7.03L64.75 7.18C64.36 7.03 63.91 6.93 63.41 6.93C61.67 6.93 60.61 7.95 60.61 9.42C60.61 10.42 61.10 11.21 61.95 11.62L61.95 11.68C61.24 11.84 60.69 12.21 60.69 12.94C60.69 13.45 60.94 13.82 61.40 14L61.40 14.15C60.66 14.34 60.21 14.77 60.21 15.55C60.21 16.67 61.14 17.32 63.45 17.32C65.90 17.32 67.05 16.59 67.05 15.09ZM65.83 15.22C65.83 15.96 65.16 16.32 63.92 16.32L62.94 16.32C61.81 16.32 61.38 15.85 61.38 15.25C61.38 14.84 61.56 14.53 61.96 14.32L64.40 14.32C65.46 14.32 65.83 14.67 65.83 15.22ZM63.42 10.92C62.50 10.92 61.92 10.49 61.92 9.60L61.92 9.24C61.92 8.36 62.50 7.92 63.42 7.92C64.34 7.92 64.92 8.36 64.92 9.24L64.92 9.60C64.92 10.49 64.34 10.92 63.42 10.92ZM70.62 14.35L70.62 13.24L69.58 13.24L69.58 3.99L68.28 3.99L68.28 13.02C68.28 13.82 68.74 14.35 69.64 14.35ZM72.83 5.59C73.37 5.59 73.61 5.29 73.61 4.87L73.61 4.68C73.61 4.26 73.37 3.96 72.83 3.96C72.28 3.96 72.04 4.26 72.04 4.68L72.04 4.87C72.04 5.29 72.28 5.59 72.83 5.59ZM72.17 14.35L73.47 14.35L73.47 7.10L72.17 7.10ZM77.99 14.52C79.70 14.52 80.77 13.64 80.77 12.22C80.77 11.10 80.11 10.40 78.51 10.16L77.90 10.07C77.06 9.94 76.64 9.67 76.64 9.03C76.64 8.41 77.08 8.01 77.97 8.01C78.83 8.01 79.45 8.41 79.80 8.88L80.63 8.09C80.01 7.36 79.24 6.93 78.01 6.93C76.48 6.93 75.38 7.69 75.38 9.11C75.38 10.46 76.34 11.03 77.73 11.23L78.34 11.33C79.23 11.45 79.51 11.83 79.51 12.36C79.51 13.03 79.00 13.44 78.08 13.44C77.20 13.44 76.52 13.05 75.98 12.36L75.10 13.12C75.77 13.97 76.65 14.52 77.99 14.52ZM82.63 14.35L83.93 14.35L83.93 9.38C83.93 8.50 84.76 8.06 85.61 8.06C86.63 8.06 87.14 8.69 87.14 9.91L87.14 14.35L88.44 14.35L88.44 9.72C88.44 7.95 87.53 6.93 86.04 6.93C84.95 6.93 84.34 7.49 84.00 8.29L83.93 8.29L83.93 3.99L82.63 3.99Z"></path></g><defs data-v-423bf9ae=""><linearGradient data-v-423bf9ae="" gradientTransform="rotate(25)" id="d74a3075-18b1-4acd-a704-5be25cc5a524" x1="0%" y1="0%" x2="100%" y2="0%"><stop data-v-423bf9ae="" offset="0%" style="stop-color: rgb(0, 21, 214); stop-opacity: 1;"></stop><stop data-v-423bf9ae="" offset="100%" style="stop-color: rgb(9, 137, 251); stop-opacity: 1;"></stop></linearGradient></defs><g data-v-423bf9ae="" id="11905605-c808-45b0-94d4-80b087660cb0" transform="matrix(2.994410458179972,0,0,2.994410458179972,0.08943266912044834,-1.9385669710569857)" stroke="none" fill="url(#d74a3075-18b1-4acd-a704-5be25cc5a524)"><path d="M17.572 23.933l4.106 7.095L32 13.189h-8.981V7.582L11.51.972 0 7.582v13.222l11.51 6.611 6.062-3.482zm10.96-8.744l-6.855 11.846-6.855-11.846h13.71z"></path></g><!----></svg>